Coordinates
version=1
nRows=8
nColumns=46
inDegrees=yes

Units are S.I. units (second, meters, Newtons, ...)
Angles are in degrees.

endheader
time	pelvis_tilt	pelvis_list	pelvis_rotation	pelvis_tx	pelvis_ty	pelvis_tz	bb_angle	bb_tx	bb_ty	bb_tz	hip_flexion_r	hip_adduction_r	hip_rotation_r	knee_angle_r	knee_angle_r_beta	ankle_angle_r	subtalar_angle_r	mtp_angle_r	crank_angle_r	hip_flexion_l	hip_adduction_l	hip_rotation_l	knee_angle_l	knee_angle_l_beta	ankle_angle_l	subtalar_angle_l	mtp_angle_l	crank_angle_l	lumbar_extension	lumbar_bending	lumbar_rotation	arm_flex_r	arm_add_r	arm_rot_r	elbow_flex_r	pro_sup_r	wrist_flex_r	wrist_dev_r	arm_flex_l	arm_add_l	arm_rot_l	elbow_flex_l	pro_sup_l	wrist_flex_l	wrist_dev_l
      2.50000000	    -22.17926361	     -3.83269356	     -6.43677437	      0.17530996	      1.04936742	     -0.21522510	      0.00000000	      0.50000000	      0.00000000	      0.25000000	     83.68109754	      3.22066327	      3.44913182	    113.98483742	      1.98941071	     -1.08667729	     -6.40926635	      0.00000000	      0.00000000	     47.85900982	    -11.26044416	     -2.84068852	     34.09408151	      0.59505398	     -7.63034200	     -8.57842311	      0.00000000	      0.00000000	    -54.68125066	     -2.48843014	      2.41443695	     76.26191361	    -11.53713894	     29.43152936	     68.20283954	     47.28959134	      0.00000000	      0.00000000	     65.18776266	    -12.73318391	     11.85235264	     81.59517229	     47.54408111	      0.00000000	      0.00000000
      2.50500000	    -22.19100436	     -4.02690315	     -6.60781346	      0.17478526	      1.04921486	     -0.21568947	      0.00000000	      0.50000000	      0.00000000	      0.25000000	     84.38101551	      3.28310540	      3.23727399	    114.38983018	      1.99647917	     -0.52404442	     -6.31776124	      0.00000000	      0.00000000	     47.42552671	    -11.52738316	     -3.07411646	     33.76538296	      0.58931711	     -8.27542114	     -8.32998246	      0.00000000	      0.00000000	    -54.71377756	     -2.30299923	      2.67932730	     76.51060119	    -11.55634021	     29.57730178	     68.17942821	     47.31940377	      0.00000000	      0.00000000	     65.25091355	    -12.81538334	     11.77998812	     81.53649494	     47.54883987	      0.00000000	      0.00000000
      2.51000000	    -22.07994106	     -4.10613131	     -6.78524681	      0.17429168	      1.04920765	     -0.21626321	      0.00000000	      0.50000000	      0.00000000	      0.25000000	     84.94830047	      3.32868380	      3.20004515	    114.77634456	      2.00322512	      0.33524003	     -5.88957439	      0.00000000	      0.00000000	     46.83316274	    -11.66953285	     -3.37395585	     33.43576955	      0.58356427	     -8.91041525	     -8.34352845	      0.00000000	      0.00000000	    -54.84292447	     -2.19369483	      2.87899115	     76.98362949	    -11.76651007	     30.25951643	     67.96199616	     47.44190925	      0.00000000	      0.00000000	     65.39438543	    -12.83705284	     11.65302455	     81.32291807	     47.59531526	      0.00000000	      0.00000000
      2.51500000	    -22.01215257	     -4.25223428	     -6.90146701	      0.17369263	      1.04887758	     -0.21689627	      0.00000000	      0.50000000	      0.00000000	      0.25000000	     85.63609007	      3.25515808	      2.98482492	    115.16491892	      2.01000702	      0.54660206	     -5.91419228	      0.00000000	      0.00000000	     46.40808019	    -11.82782474	     -3.51858434	     33.34811643	      0.58203443	     -9.15261015	     -8.25951195	      0.00000000	      0.00000000	    -54.89943759	     -2.04161584	      3.03813696	     77.06094714	    -11.75162185	     30.27884184	     67.96905416	     47.44854520	      0.00000000	      0.00000000	     65.44732848	    -12.88596733	     11.61823731	     81.32145391	     47.59584273	      0.00000000	      0.00000000
      2.52000000	    -22.07433970	     -4.38200799	     -7.13679994	      0.17304510	      1.04861373	     -0.21733368	      0.00000000	      0.50000000	      0.00000000	      0.25000000	     86.35553290	      3.36963969	      2.82607828	    115.42198688	      2.01449370	      1.40084699	     -5.89490165	      0.00000000	      0.00000000	     46.08264063	    -12.08372225	     -3.81669121	     33.15981938	      0.57874803	     -9.90231516	     -8.09467309	      0.00000000	      0.00000000	    -54.91498379	     -1.89443611	      3.35560042	     77.41537132	    -11.75035296	     30.35845489	     68.02485363	     47.47766749	      0.00000000	      0.00000000	     65.56556530	    -13.02119869	     11.50986618	     81.27070598	     47.59263289	      0.00000000	      0.00000000
      2.52500000	    -22.01133089	     -4.48780935	     -7.31569877	      0.17248036	      1.04829331	     -0.21821143	      0.00000000	      0.50000000	      0.00000000	      0.25000000	     87.02244889	      3.30392082	      2.66557477	    115.69578212	      2.01927233	      1.65620915	     -5.85255168	      0.00000000	      0.00000000	     45.66797750	    -12.21227355	     -3.98413419	     33.14479419	      0.57848579	    -10.10342096	     -8.11008774	      0.00000000	      0.00000000	    -54.98702096	     -1.78191678	      3.54026952	     77.50519219	    -11.73596664	     30.40385891	     68.03274454	     47.48715511	      0.00000000	      0.00000000	     65.61098337	    -13.06607167	     11.46530495	     81.26417816	     47.59187479	      0.00000000	      0.00000000
      2.53000000	    -22.06422313	     -4.57267354	     -7.63661876	      0.17169649	      1.04786189	     -0.21848170	      0.00000000	      0.50000000	      0.00000000	      0.25000000	     87.73836952	      3.49602641	      2.58985398	    115.88384091	      2.02255457	      2.66681574	     -5.47260667	      0.00000000	      0.00000000	     45.42614169	    -12.49591856	     -4.36479140	     33.19579412	      0.57937591	    -10.78822954	     -8.29951182	      0.00000000	      0.00000000	    -54.99550692	     -1.75965307	      3.85819254	     77.91603826	    -11.82147605	     30.65421451	     68.06758754	     47.53960199	      0.00000000	      0.00000000	     65.71093156	    -13.14404622	     11.29789331	     81.18860506	     47.59011217	      0.00000000	      0.00000000
      2.53500000	    -22.04488103	     -4.57984663	     -7.79268014	      0.17085498	      1.04726679	     -0.21920652	      0.00000000	      0.50000000	      0.00000000	      0.25000000	     88.44535973	      3.43303827	      2.54202020	    116.10464100	      2.02640826	      3.28130250	     -5.30270729	      0.00000000	      0.00000000	     45.19122612	    -12.55195032	     -4.59768342	     33.37135723	      0.58244006	    -11.18340015	     -8.44000596	      0.00000000	      0.00000000	    -55.02651065	     -1.66239458	      4.04488438	     78.19669414	    -11.91104303	     30.84629286	     68.08840980	     47.57939670	      0.00000000	      0.00000000	     65.79368821	    -13.16557305	     11.16963819	     81.13717404	     47.59000048	      0.00000000	      0.00000000
